<?xml version="1.0" standalone="no"?>
<!DOCTYPE svg PUBLIC "-//W3C//DTD SVG 20010904//EN"
 "http://www.w3.org/TR/2001/REC-SVG-20010904/DTD/svg10.dtd">
<svg version="1.0" xmlns="http://www.w3.org/2000/svg"
 width="1000.000000pt" height="990.000000pt" viewBox="0 0 1000.000000 990.000000"
 preserveAspectRatio="xMidYMid meet">

<g transform="translate(0.000000,990.000000) scale(0.100000,-0.100000)"
fill="#000000" stroke="none">
<path d="M0 4950 l0 -4950 5000 0 5000 0 0 4950 0 4950 -5000 0 -5000 0 0
-4950z m5200 3990 c767 -43 1482 -289 2100 -724 345 -243 723 -621 966 -966
207 -293 390 -651 507 -986 234 -672 284 -1393 146 -2089 -148 -745 -511
-1444 -1026 -1976 l-123 -126 10 -53 c6 -29 10 -126 10 -216 l0 -164 -30 0
-30 0 0 -187 -1 -188 -62 -28 c-104 -46 -184 -67 -303 -77 -242 -21 -442 31
-579 152 l-47 41 -44 -21 -43 -21 6 -78 c19 -248 -130 -433 -404 -503 -111
-29 -290 -42 -412 -30 -208 20 -346 92 -418 219 -15 25 -27 47 -28 49 -2 1
-91 -2 -199 -8 -580 -31 -1188 75 -1731 302 -159 66 -425 202 -554 283 -57 36
-107 65 -112 65 -5 0 -9 -99 -9 -220 l0 -220 -245 0 -245 0 0 416 0 417 -158
161 c-353 362 -622 763 -820 1227 -386 902 -420 1938 -95 2873 117 335 300
693 507 986 243 345 621 723 966 966 293 207 651 390 986 507 349 121 727 196
1089 216 204 12 233 12 425 1z"/>
<path d="M4830 8539 c-1115 -63 -2107 -607 -2755 -1509 -519 -723 -750 -1636
-640 -2520 88 -695 366 -1329 827 -1880 143 -170 138 -167 138 -89 l-1 64 -79
95 c-502 598 -795 1364 -817 2140 -12 429 48 838 183 1237 348 1031 1166 1845
2199 2188 272 91 484 136 790 171 179 20 560 14 746 -11 811 -110 1505 -449
2059 -1004 560 -561 910 -1294 1000 -2091 18 -163 24 -493 11 -640 -42 -483
-167 -927 -377 -1342 -158 -311 -369 -601 -626 -862 -71 -71 -127 -130 -125
-131 1 -1 22 -7 46 -14 l44 -13 89 89 c113 111 275 303 383 453 519 723 750
1636 640 2520 -175 1391 -1151 2564 -2485 2984 -401 127 -862 187 -1250 165z"/>
<path d="M5503 7834 c-104 -15 -232 -63 -320 -119 -37 -25 -296 -277 -719
-699 -717 -716 -731 -733 -794 -902 -33 -87 -34 -92 -34 -249 0 -147 2 -166
27 -240 79 -237 257 -414 494 -492 114 -37 284 -43 408 -14 278 67 500 284
571 561 18 71 24 223 11 309 l-8 54 143 143 143 144 70 -11 c138 -22 317 7
449 72 376 187 536 652 351 1026 -42 84 -125 192 -190 246 -89 75 -229 144
-325 161 -14 2 -36 6 -50 9 -60 13 -141 13 -227 1z m-33 -439 c44 -23 73 -71
73 -122 0 -38 -5 -50 -40 -84 -33 -34 -46 -40 -81 -41 -118 -1 -184 131 -105
214 46 49 99 61 153 33z m385 -5 c35 -21 65 -73 65 -110 0 -36 -31 -91 -64
-112 -42 -26 -117 -20 -153 13 -64 59 -63 141 2 198 43 38 100 42 150 11z
m-364 -373 c22 -15 39 -38 49 -65 13 -37 13 -47 0 -84 -19 -53 -67 -88 -122
-88 -54 0 -94 26 -120 78 -18 38 -19 49 -9 82 26 88 128 127 202 77z m359 1
c18 -13 42 -40 53 -61 17 -34 18 -43 8 -79 -16 -52 -48 -84 -101 -98 -35 -10
-47 -8 -78 8 -45 23 -71 57 -78 103 -17 106 108 186 196 127z m-1574 -930 l65
-62 25 31 c34 43 112 93 146 93 40 0 82 -24 111 -62 52 -70 44 -117 -33 -193
-28 -27 -50 -53 -50 -58 0 -4 22 -32 49 -60 28 -29 55 -65 61 -81 15 -42 -3
-98 -45 -135 -69 -60 -128 -55 -200 19 -27 28 -56 50 -65 50 -9 0 -38 -22 -65
-50 -76 -77 -140 -80 -207 -9 -33 34 -38 46 -38 85 0 49 36 114 85 152 14 11
25 24 25 29 0 5 -23 31 -50 58 -63 62 -80 109 -57 157 29 61 81 97 140 98 34
0 47 -8 103 -62z"/>
<path d="M4179 4651 l-24 -19 -2 -564 c-2 -435 0 -568 10 -587 7 -13 58 -48
125 -85 62 -33 135 -82 162 -108 64 -60 127 -158 148 -229 l16 -56 71 5 c93 6
147 -10 201 -60 51 -47 74 -109 74 -200 l0 -58 -176 0 -176 0 6 -32 c8 -46 55
-85 108 -92 38 -6 114 6 186 29 23 7 23 6 20 -51 l-3 -59 -50 -18 c-37 -13
-74 -16 -145 -14 -83 2 -102 6 -149 32 -39 21 -64 44 -84 77 l-30 48 -37 -30
c-48 -38 -137 -80 -172 -80 -37 0 -58 -10 -58 -26 0 -11 -18 -14 -80 -14 -44
0 -80 4 -80 9 0 5 -46 10 -102 11 -57 0 -112 2 -123 3 -18 2 -20 -5 -23 -59
l-3 -62 105 5 c123 7 203 -6 293 -47 76 -35 165 -116 205 -187 l30 -53 144 0
144 0 0 135 0 135 118 0 117 0 19 -82 c10 -46 20 -86 22 -90 3 -4 39 28 82 71
98 99 154 123 276 119 l81 -3 -1 -30 c-1 -16 -4 -81 -9 -143 l-7 -113 77 3 78
3 12 41 c29 98 106 171 225 215 73 27 108 28 548 14 l232 -7 0 44 c0 55 -20
84 -62 91 -18 3 -121 7 -228 9 -178 2 -195 1 -198 -15 -3 -14 -15 -17 -78 -17
l-74 0 0 57 c0 54 -2 58 -51 110 -31 32 -65 85 -88 134 l-38 81 -12 -33 c-6
-18 -11 -98 -11 -190 l0 -159 -75 0 -75 0 0 380 0 380 76 0 76 0 -4 -145 c-1
-79 1 -140 5 -136 5 5 17 43 28 87 24 97 55 165 116 257 56 84 229 267 323
340 36 28 93 75 127 104 86 75 558 313 691 349 51 14 116 36 145 50 29 13 62
24 75 24 13 0 119 21 235 46 153 33 218 51 232 65 18 18 20 33 20 195 0 173 0
176 -24 195 -23 19 -65 19 -1766 19 -1701 0 -1743 0 -1766 -19z m1249 -1656
c29 -9 52 -19 52 -24 0 -16 -32 -101 -41 -106 -4 -3 -34 2 -65 11 -70 20 -122
8 -150 -34 -27 -39 -27 -185 -1 -224 36 -52 111 -59 205 -18 l42 19 0 -64 c0
-63 -1 -65 -32 -81 -19 -10 -65 -19 -108 -22 -135 -8 -207 27 -255 122 -26 53
-29 70 -29 150 -1 153 55 240 174 277 43 13 154 10 208 -6z"/>
<path d="M2280 4367 c0 -12 7 -32 15 -43 8 -12 12 -24 9 -27 -9 -8 97 -138
153 -186 156 -138 479 -303 788 -404 278 -91 725 -208 740 -195 6 6 11 171 13
443 l3 435 -860 0 -861 0 0 -23z"/>
<path d="M4664 2888 c-22 -10 -38 -34 -49 -75 -6 -23 -5 -23 98 -23 104 0 105
0 100 23 -9 40 -25 65 -50 76 -29 13 -71 13 -99 -1z"/>
<path d="M2700 2252 l0 -58 65 -53 65 -52 72 3 71 3 -74 55 c-41 30 -102 79
-136 108 l-63 53 0 -59z"/>
<path d="M5945 2175 c-42 -15 -85 -56 -85 -81 0 -11 25 -14 145 -14 161 0 167
3 119 59 -24 29 -77 51 -119 51 -11 -1 -38 -7 -60 -15z"/>
<path d="M6475 2170 c-33 -9 -59 -20 -59 -24 1 -4 7 -20 14 -36 12 -28 16 -30
66 -30 61 0 84 21 84 77 0 39 -11 40 -105 13z"/>
<path d="M7115 2134 c-16 -8 -40 -25 -52 -36 -23 -21 -60 -104 -51 -113 4 -5
142 92 208 144 l25 21 -50 0 c-27 0 -63 -7 -80 -16z"/>
<path d="M3858 2114 c-85 -26 -67 -34 78 -34 115 0 135 2 125 14 -13 16 -87
36 -128 35 -15 0 -49 -7 -75 -15z"/>
<path d="M5288 2083 c18 -2 45 -2 60 0 15 2 0 4 -33 4 -33 0 -45 -2 -27 -4z"/>
<path d="M3190 1902 c0 -28 6 -54 13 -60 6 -5 56 -33 110 -62 l97 -52 0 50 c0
50 0 51 -52 80 -29 16 -79 44 -110 61 l-58 32 0 -49z"/>
<path d="M6540 1812 c-74 -37 -155 -77 -180 -89 -25 -11 -72 -35 -105 -51 -33
-17 -87 -35 -120 -42 -112 -22 -285 -74 -285 -86 0 -19 25 -34 75 -43 42 -8
62 -5 159 26 153 48 370 135 499 199 l107 54 0 50 c0 28 -3 50 -7 49 -5 0 -69
-30 -143 -67z"/>
<path d="M3730 1671 c0 -9 9 -34 19 -56 18 -40 20 -41 139 -79 l120 -38 41 22
c61 35 59 47 -12 67 -34 9 -117 36 -184 58 -102 35 -123 39 -123 26z"/>
<path d="M7203 1618 c-18 -11 -33 -24 -33 -28 0 -32 212 -23 319 14 41 14 77
28 79 31 3 3 -71 5 -164 4 -151 -1 -172 -3 -201 -21z"/>
<path d="M4377 1460 c-19 -28 -23 -42 -15 -45 14 -4 193 -30 291 -41 l57 -6 0
45 c0 52 15 46 -155 67 -49 6 -103 13 -120 15 -26 5 -34 0 -58 -35z"/>
<path d="M5481 1485 c-114 -18 -304 -35 -390 -35 l-71 0 0 -47 0 -48 87 3
c100 3 331 25 444 43 l76 11 -16 44 c-10 27 -22 44 -31 43 -8 -1 -53 -7 -99
-14z"/>
<path d="M6101 1110 c-72 -22 -92 -33 -40 -24 42 7 129 34 129 40 0 7 -23 3
-89 -16z"/>
</g>
</svg>
